<svg width="21" height="23" viewBox="0 0 21 23" fill="none" xmlns="http://www.w3.org/2000/svg">
<path fill-rule="evenodd" clip-rule="evenodd" d="M10.4025 22.4998C8.87814 22.4998 7.39201 22.4829 5.92164 22.4526C4.04064 22.4154 2.73901 21.1959 2.52639 19.2699C2.17201 16.0749 1.56564 8.54418 1.56001 8.4688C1.52176 8.00418 1.86826 7.59693 2.33289 7.5598C2.79076 7.54743 3.20476 7.86918 3.24189 8.33268C3.24751 8.40918 3.85276 15.9141 4.20376 19.0843C4.32414 20.1789 4.91476 20.7437 5.95651 20.7651C8.76901 20.8247 11.6389 20.8281 14.7326 20.7718C15.8396 20.7504 16.4381 20.1969 16.5619 19.0764C16.9106 15.9332 17.5181 8.40918 17.5249 8.33268C17.562 7.86918 17.9726 7.54518 18.4328 7.5598C18.8974 7.59805 19.2439 8.00418 19.2068 8.4688C19.2 8.5453 18.5903 16.0952 18.2393 19.2621C18.021 21.2274 16.7228 22.4233 14.763 22.4593C13.2634 22.4852 11.8166 22.4998 10.4025 22.4998" fill="#6D6D6D"/>
<path fill-rule="evenodd" clip-rule="evenodd" d="M19.9215 5.61255H0.84375C0.378 5.61255 0 5.23455 0 4.7688C0 4.30305 0.378 3.92505 0.84375 3.92505H19.9215C20.3873 3.92505 20.7653 4.30305 20.7653 4.7688C20.7653 5.23455 20.3873 5.61255 19.9215 5.61255" fill="#6D6D6D"/>
<path fill-rule="evenodd" clip-rule="evenodd" d="M16.2454 5.61262C14.9652 5.61262 13.8537 4.70025 13.6017 3.44475L13.3283 2.07675C13.2709 1.86862 13.0335 1.6875 12.7635 1.6875H8.00141C7.73141 1.6875 7.49403 1.86862 7.42541 2.1285L7.16328 3.44475C6.91241 4.70025 5.79978 5.61262 4.51953 5.61262C4.05378 5.61262 3.67578 5.23462 3.67578 4.76887C3.67578 4.30312 4.05378 3.92513 4.51953 3.92513C4.99878 3.92513 5.41503 3.58312 5.50953 3.11287L5.78291 1.74487C6.06078 0.696375 6.96866 0 8.00141 0H12.7635C13.7963 0 14.7042 0.696375 14.9708 1.69425L15.2565 3.11287C15.3499 3.58312 15.7662 3.92513 16.2454 3.92513C16.7112 3.92513 17.0892 4.30312 17.0892 4.76887C17.0892 5.23462 16.7112 5.61262 16.2454 5.61262" fill="#6D6D6D"/>
</svg>
