<?xml version="1.0" encoding="UTF-8"?>
<svg version="1.1" xmlns="http://www.w3.org/2000/svg" width="512" height="512" viewBox="0 0 512 512">
  <!-- ส่วนของขอบถุงกระดาษชั้นนอก -->
  <path fill="#000000" transform="translate(80.88, 3.86)"
    d="M0 0 C1.89 -0.01 3.82 -0.02 3.82 -0.02 C5.23 -0.02 6.65 -0.02 8.06 -0.02 C12.53 -0.03 24.87 -0.05 38.15 -0.08 
       C70.26 -0.13 135.57 -0.2 151.87 -0.22 C204.38 -0.3 258.24 -0.37 288.5 -0.42 C314.27 -0.45 339.45 -0.48 343.81 -0.49 
       C356.02 -0.61 359.96 2.55 363.25 14.52 C363.26 16.86 363.31 46.0 363.33 62.82 C363.39 103.47 363.46 186.14 363.47 204.71 
       C363.55 271.18 363.63 341.44 363.68 379.74 C363.7 412.36 363.73 429.01 363.73 444.24 C363.75 449.76 363.74 457.25 363.77 459.43 
       C361.95 467.33 358.12 471.14 351.89 472.26 C346.25 472.25 332.95 472.23 307.31 472.21 C288.34 472.19 251.12 472.14 251.12 472.14 
       L251.43 484.26 C251.56 487.72 248.72 500.88 236.67 504.5 C230.9 502.14 228.12 499.14 227.02 488.41 L227.12 472.14 
       L187.12 472.14 L187.57 488.05 C187.68 497.24 184.72 500.88 172.67 504.5 C166.9 502.14 164.12 499.14 163.02 488.41 L163.12 472.14 
       L123.12 472.14 L123.57 488.05 C123.68 497.24 120.72 500.88 108.67 504.5 C102.9 502.14 100.12 499.14 99.02 488.07 L99.12 472.14 
       C82.9 472.27 39.43 472.51 14.2 472.67 C7.69 472.71 1.53 472.76 -9.47 469.73 C-13.19 465.74 -13.02 457.75 -13.03 447.55 
       C-13.07 426.27 -13.15 368.81 -13.22 286.14 C-13.23 267.57 -13.32 201.09 -13.39 130.84 C-13.44 92.53 -13.47 59.91 -13.49 43.26 
       C-13.51 22.51 -13.5 15.02 -13.54 12.85 C-13.44 7.23 -7.88 1.14 0 0 Z 
       M11.12 24.14 L11.12 448.14 L339.12 448.14 L339.12 24.14 L11.12 24.14 Z"/>

  <!-- ส่วนของกระดาษด้านใน/เงา -->
  <path fill="#000000" transform="translate(148.08, 67.85)"
    d="M0 0 C2.89 -0.01 12.53 -0.04 42.09 -0.12 C82.3 -0.19 92.83 -0.2 126.7 -0.29 C161.48 -0.36 181.01 -0.41 199.38 -0.43 
       C206.12 -0.46 215.32 -0.45 218.03 -0.5 C222.3 -0.44 228.45 0.17 232.07 11.38 C232.1 14.06 232.13 20.12 232.19 30.33 
       C232.27 52.26 232.38 71.3 232.43 85.93 C232.48 92.95 232.5 102.77 232.55 105.7 C232.51 110.15 229.5 116.74 215.83 120.31 
       L212.94 120.32 C203.3 120.35 173.74 120.43 133.53 120.5 C111.71 120.52 89.13 120.59 54.35 120.67 
       C34.83 120.71 16.46 120.74 0.51 120.76 C-2.19 120.8 -12.62 117.74 -16.24 108.93 
       C-16.3 100.19 -16.36 89.98 -16.43 68.04 C-16.55 49.01 -16.64 27.36 -16.67 17.53 
       C-16.72 14.61 -16.68 10.16 -13.67 3.57 C-9.31 -0.5 -5.71 0 0 0 Z 
       M7.92 24.15 L7.92 96.15 L207.92 96.15 L207.92 24.15 L7.92 24.15 Z"/>

  <!-- ส่วนสัญลักษณ์รูปตัว N หรือ Zigzag ตรงกลาง -->
  <path fill="#000000" transform="translate(258.59, 243.5)"
    d="M0 0 C5.7 2.58 8.41 5.5 9.41 17.5 C8.11 21.38 4.38 28.54 2.83 31.59 
       C-2.09 41.13 -5.41 47.64 -13.59 63.5 L6.59 63.65 C13.45 63.7 23.32 63.79 26.41 63.78 
       C34.37 63.95 38.04 66.92 41.88 78.4 C37.41 90.86 32.23 101.1 27.64 110.18 
       C21.81 121.79 17.3 130.77 10.38 144.46 C4.71 151.9 -0.15 153.16 -11.15 150.13 
       C-14.93 138.34 -9.56 124.46 -8.01 121.41 C-3.09 111.88 0.23 105.36 8.41 89.5 
       L-11.77 89.35 C-18.63 89.3 -28.5 89.21 -31.59 89.22 C-39.55 89.05 -43.22 86.08 -47.05 74.6 
       C-42.59 62.14 -37.41 51.9 -32.82 42.82 C-26.99 31.21 -22.48 22.23 -15.56 8.54 
       C-11.55 2.35 -7.43 -0.36 0 0 Z"/>

  <!-- ส่วนจุดวงกลม/วงรี ด้านล่างซ้าย -->
  <path fill="#000000" transform="translate(149, 260)"
    d="M0 0 C5.39 3.79 7 7 5.95 18.96 C3.56 21.86 1.6 23.8 -2.17 24.27 
       C-13.56 21.63 -17.31 17.59 -17.36 9.55 C-15.0 3.79 -12 1 -8.28 -0.86 L0 0 Z"/>
</svg>
