<?xml version="1.0" encoding="UTF-8"?>
<svg version="1.1" xmlns="http://www.w3.org/2000/svg" width="512" height="512">
<path d="M0 0 C1.89190665 -0.00761181 1.89190665 -0.00761181 3.82203364 -0.0153774 C5.23476581 -0.01597913 6.64749802 -0.01647819 8.06023026 -0.01688576 C9.55085911 -0.02089884 11.04148688 -0.02533681 12.53211331 -0.03016531 C16.64337987 -0.0421538 20.75463468 -0.04778452 24.8659153 -0.05234647 C29.29412866 -0.05829393 33.72232791 -0.06990587 38.15053177 -0.08063698 C48.85207574 -0.10518014 59.5536244 -0.11979068 70.25518787 -0.13269705 C73.27633849 -0.1364075 76.29748864 -0.14038085 79.3186388 -0.14444971 C98.06821549 -0.16968406 116.81779288 -0.19174334 135.56738281 -0.20417786 C139.91210559 -0.20710769 144.25682834 -0.21006933 148.60155106 -0.21308327 C149.68144874 -0.21382932 150.76134642 -0.21457537 151.87396827 -0.21534403 C169.3747245 -0.22800252 186.87537923 -0.26123112 204.37608799 -0.3028851 C222.33207802 -0.34527338 240.28801605 -0.36886927 258.24405599 -0.37409842 C268.33044064 -0.37751601 278.41666668 -0.38931206 288.50300217 -0.42220116 C297.09160402 -0.45016014 305.68001477 -0.46121929 314.26865861 -0.4500057 C318.65224536 -0.44480842 323.03543164 -0.44777476 327.41896057 -0.47247124 C331.43113773 -0.49488727 335.442625 -0.49428412 339.45481363 -0.47526737 C340.90708114 -0.47245655 342.35939467 -0.47812586 343.8115879 -0.4930803 C356.02019596 -0.61112619 356.02019596 -0.61112619 359.95786285 2.5500145 C363.34238844 6.60489978 363.26257216 9.42600959 363.25419044 14.51910591 C363.25684227 15.29289117 363.2594941 16.06667643 363.26222628 16.86390972 C363.26995005 19.48415175 363.27047963 22.10434716 363.2710762 24.72459984 C363.2750888 26.61120929 363.27952667 28.49781787 363.28435576 30.3844254 C363.29634968 35.5902432 363.30197622 40.79605172 363.30653691 46.00188065 C363.3124823 51.60801747 363.32409474 57.21414313 363.33482742 62.82027245 C363.35937506 76.36945147 363.37398162 89.9186342 363.38688749 103.46782863 C363.39059757 107.29240784 363.39457094 111.11698667 363.39864016 114.94156551 C363.42387374 138.67362616 363.44595077 162.40568735 363.4583683 186.13775826 C363.46128972 191.63751033 363.46425722 197.13726237 363.46727371 202.63701439 C363.46764462 203.32030202 363.46801553 204.00358964 363.46839768 204.70758295 C363.48055577 226.86614579 363.51150356 249.02462924 363.55319524 271.18315479 C363.59717614 294.60101794 363.62289997 318.01881997 363.62828887 341.43673062 C363.63170764 354.20588573 363.64351775 366.9749156 363.6763916 379.74403191 C363.70433567 390.61632616 363.71541626 401.48846952 363.70419614 412.3607969 C363.69899513 417.910905 363.70198985 423.46069681 363.72666168 429.01075935 C363.74904713 434.08873281 363.74849791 439.16616083 363.72945781 444.24414316 C363.72664273 446.08402388 363.73233939 447.92394075 363.74727075 449.76376304 C363.76629813 452.26036381 363.75464303 454.7550038 363.73520851 457.2515583 C363.74805773 457.97001474 363.76090695 458.68847117 363.77414554 459.42869902 C363.67783314 465.03912338 361.94610506 467.33282916 358.11717606 471.13701439 C355.79604818 472.29757833 354.47389981 472.26035177 351.89046097 472.25726891 C351.00422546 472.25864357 350.11798996 472.26001823 349.20489883 472.26143456 C347.74294334 472.25604164 347.74294334 472.25604164 346.2514534 472.25053978 C345.22703644 472.25068581 344.20261948 472.25083183 343.14715958 472.25098228 C339.74912296 472.25028365 336.35114064 472.2424935 332.95311356 472.23467064 C330.60184636 472.23280629 328.25057878 472.23138247 325.89931107 472.23038292 C319.7014751 472.2265591 313.50366246 472.21672995 307.30583572 472.20567894 C300.98513988 472.19546192 294.66444027 472.19088467 288.34373856 472.18584251 C275.93487413 472.17510758 263.52602703 472.15803277 251.11717606 472.13701439 C251.15645218 473.22586937 251.15645218 473.22586937 251.19652176 474.33672142 C251.30084415 477.6449298 251.36561477 480.95279159 251.42967606 484.26201439 C251.47157059 485.40412376 251.51346512 486.54623314 251.55662918 487.72295189 C251.69477055 497.22707822 251.69477055 497.22707822 248.72264481 500.87920189 C244.6562836 504.40297517 241.92468916 504.5268191 236.66795731 504.49638939 C232.55849101 503.91741405 230.90368028 502.13786509 228.11717606 499.13701439 C226.78628495 496.47523218 227.00448613 494.44962043 227.01951981 491.47295189 C227.02201736 490.46281029 227.02451492 489.45266869 227.02708817 488.41191673 C227.03619217 487.12494896 227.04529617 485.83798119 227.05467606 484.51201439 C227.07530106 480.42826439 227.09592606 476.34451439 227.11717606 472.13701439 C213.91717606 472.13701439 200.71717606 472.13701439 187.11717606 472.13701439 C187.31423905 480.09516505 187.31423905 480.09516505 187.56761551 488.05156517 C187.68237033 497.24231552 187.68237033 497.24231552 184.72264481 500.87920189 C180.6562836 504.40297517 177.92468916 504.5268191 172.66795731 504.49638939 C168.55849101 503.91741405 166.90368028 502.13786509 164.11717606 499.13701439 C162.78628495 496.47523218 163.00448613 494.44962043 163.01951981 491.47295189 C163.02201736 490.46281029 163.02451492 489.45266869 163.02708817 488.41191673 C163.03619217 487.12494896 163.04529617 485.83798119 163.05467606 484.51201439 C163.07530106 480.42826439 163.09592606 476.34451439 163.11717606 472.13701439 C149.91717606 472.13701439 136.71717606 472.13701439 123.11717606 472.13701439 C123.31423905 480.09516505 123.31423905 480.09516505 123.56761551 488.05156517 C123.68237033 497.24231552 123.68237033 497.24231552 120.72264481 500.87920189 C116.6562836 504.40297517 113.92468916 504.5268191 108.66795731 504.49638939 C104.55849101 503.91741405 102.90368028 502.13786509 100.11717606 499.13701439 C98.78628495 496.47523218 99.00448613 494.44962043 99.01951981 491.47295189 C99.02435379 489.79072533 99.02435379 489.79072533 99.02928543 488.07451439 C99.04185379 486.31107689 99.04185379 486.31107689 99.05467606 484.51201439 C99.05918777 483.32865501 99.06369949 482.14529564 99.06834793 480.92607689 C99.08016139 477.99633932 99.09663348 475.06670167 99.11717606 472.13701439 C97.81505173 472.14811745 96.5129274 472.1592205 95.17134476 472.17066002 C82.90002578 472.27201867 70.62879173 472.34697181 58.35714912 472.39607525 C52.04813948 472.42216858 45.73946777 472.45756307 39.43065262 472.51421165 C33.34225137 472.56853895 27.25417516 472.59843691 21.16555023 472.6114006 C18.84269087 472.62063904 16.51984928 472.63867959 14.1971283 472.66566467 C10.94336126 472.70196307 7.69093722 472.7069592 4.43700027 472.70464134 C3.47674438 472.72261772 2.51648849 472.7405941 1.52713394 472.75911522 C-2.91116318 472.72490565 -5.93325141 472.57580291 -9.46531296 469.7265377 C-13.18997859 465.73685222 -13.02844071 462.98210086 -13.01983833 457.75492287 C-13.02249016 456.98113761 -13.02514199 456.20735235 -13.02787417 455.41011906 C-13.03559794 452.78987703 -13.03612751 450.16968162 -13.03672409 447.54942894 C-13.04073668 445.66281949 -13.04517456 443.77621091 -13.05000365 441.88960338 C-13.06199757 436.68378558 -13.0676241 431.47797705 -13.0721848 426.27214813 C-13.07813019 420.66601131 -13.08974262 415.05988565 -13.10047531 409.45375633 C-13.12502295 395.90457731 -13.13962951 382.35539458 -13.15253538 368.80620015 C-13.15624546 364.98162094 -13.16021883 361.1570421 -13.16428804 357.33246326 C-13.18952163 333.60040262 -13.21159866 309.86834142 -13.22401619 286.13627052 C-13.22693761 280.63651845 -13.22990511 275.13676641 -13.2329216 269.63701439 C-13.23329251 268.95372676 -13.23366342 268.27043914 -13.23404557 267.56644582 C-13.24620366 245.40788299 -13.27715145 223.24939954 -13.31884312 201.09087399 C-13.36282403 177.67301084 -13.38854786 154.25520881 -13.39393675 130.83729815 C-13.39735553 118.06814305 -13.40916564 105.29911318 -13.44203949 92.52999687 C-13.46998356 81.65770262 -13.48106415 70.78555926 -13.46984403 59.91323188 C-13.46464301 54.36312378 -13.46763774 48.81333196 -13.49230957 43.26326942 C-13.51469502 38.18529597 -13.5141458 33.10786794 -13.4951057 28.02988562 C-13.49229062 26.1900049 -13.49798728 24.35008802 -13.51291864 22.51026574 C-13.53194601 20.01366497 -13.52029092 17.51902498 -13.5008564 15.02247047 C-13.51370562 14.30401404 -13.52655484 13.5855576 -13.53979343 12.84532976 C-13.44348103 7.2349054 -11.71175295 4.94119962 -7.88282394 1.13701439 C-5.16770569 -0.22054474 -3.04143359 0.00646962 0 0 Z M11.11717606 24.13701439 C11.11717606 164.05701439 11.11717606 303.97701439 11.11717606 448.13701439 C119.35717606 448.13701439 227.59717606 448.13701439 339.11717606 448.13701439 C339.11717606 308.21701439 339.11717606 168.29701439 339.11717606 24.13701439 C230.87717606 24.13701439 122.63717606 24.13701439 11.11717606 24.13701439 Z " fill="#000000" transform="translate(80.8828239440918,3.862985610961914)"/>
<path d="M0 0 C0.95302671 -0.00438225 1.90605341 -0.00876451 2.88795972 -0.01327956 C6.10151691 -0.02670129 9.31504666 -0.03285397 12.52862549 -0.03897095 C14.82457606 -0.04686923 17.12052539 -0.055138 19.41647339 -0.06375122 C26.97370208 -0.09000197 34.5309364 -0.1052814 42.0881958 -0.11953735 C44.68647516 -0.12489568 47.28475447 -0.13027319 49.88303375 -0.13566971 C60.68839946 -0.15730245 71.49376282 -0.17619188 82.29914474 -0.1872921 C85.10382847 -0.19022184 87.90851216 -0.1931835 90.7131958 -0.19619751 C91.41029479 -0.19694356 92.10739378 -0.19768961 92.82561699 -0.19845827 C104.11853517 -0.21111224 115.41129593 -0.24433528 126.70414051 -0.28599934 C138.29590401 -0.32841596 149.88757856 -0.35157914 161.47941899 -0.35721266 C167.9888013 -0.36087176 174.49791679 -0.37295279 181.00722504 -0.4053154 C187.13038177 -0.43532127 193.2531092 -0.44173433 199.3763237 -0.42993164 C201.6249514 -0.42971028 203.87359859 -0.43806632 206.12215805 -0.45558548 C209.19019481 -0.47819009 212.25666341 -0.47002182 215.32470703 -0.45410156 C216.66216795 -0.47492469 216.66216795 -0.47492469 218.02664828 -0.49616849 C222.29878451 -0.44147817 225.06392109 -0.16717348 228.45329666 2.56690025 C231.50757607 5.77491611 232.03937517 7.10451164 232.07022095 11.37820435 C232.07882141 12.26418304 232.08742188 13.15016174 232.09628296 14.06298828 C232.10267288 15.52483047 232.10267288 15.52483047 232.10919189 17.01620483 C232.12145813 18.553004 232.12145813 18.553004 232.13397217 20.12084961 C232.15885126 23.52248545 232.17534881 26.92407949 232.1897583 30.32577515 C232.19508198 31.4859037 232.20040565 32.64603226 232.20589066 33.84131622 C232.23263337 39.98196248 232.25200457 46.12258833 232.26641846 52.26327515 C232.28306742 58.60998352 232.32784478 64.95617274 232.3787899 71.30268478 C232.41242704 76.17886968 232.4239921 81.05493084 232.42964554 85.93122101 C232.43636791 88.27081519 232.45161537 90.61040096 232.47553635 92.94988251 C232.50711305 96.22502574 232.50723529 99.49876218 232.49981689 102.77401733 C232.51622223 103.74048187 232.53262756 104.70694641 232.54953003 105.70269775 C232.50827355 110.15275353 232.36191278 113.19821578 229.50485229 116.74014282 C225.1443284 120.80625 221.54443622 120.30464328 215.8326416 120.30780029 C214.40310154 120.31437367 214.40310154 120.31437367 212.94468188 120.32107985 C209.73112469 120.33450158 206.51759494 120.34065427 203.30401611 120.34677124 C201.00806554 120.35466952 198.71211622 120.36293829 196.41616821 120.37155151 C188.85893952 120.39780226 181.3017052 120.4130817 173.7444458 120.42733765 C171.14616644 120.43269598 168.54788713 120.43807348 165.94960785 120.44347 C155.14424215 120.46510275 144.33887878 120.48399217 133.53349686 120.49509239 C130.72881313 120.49802214 127.92412944 120.50098379 125.1194458 120.5039978 C124.42234681 120.50474385 123.72524782 120.5054899 123.00702462 120.50625856 C111.71410643 120.51891253 100.42134567 120.55213557 89.12850109 120.59379964 C77.53673759 120.63621626 65.94506304 120.65937943 54.35322261 120.66501296 C47.8438403 120.66867206 41.33472481 120.68075308 34.82541656 120.71311569 C28.70225983 120.74312156 22.5795324 120.74953463 16.4563179 120.73773193 C14.2076902 120.73751058 11.95904301 120.74586661 9.71048355 120.76338577 C6.6424468 120.78599038 3.57597819 120.77782211 0.50793457 120.76190186 C-0.38370604 120.77578394 -1.27534666 120.78966603 -2.19400668 120.80396879 C-6.46614291 120.74927846 -9.23127948 120.47497377 -12.62065506 117.74090004 C-15.67493447 114.53288418 -16.20673357 113.20328865 -16.23757935 108.92959595 C-16.24617981 108.04361725 -16.25478027 107.15763855 -16.26364136 106.24481201 C-16.26790131 105.27025055 -16.27216125 104.29568909 -16.27655029 103.29159546 C-16.28472778 102.26706268 -16.29290527 101.24252991 -16.30133057 100.18695068 C-16.32620966 96.78531484 -16.34270721 93.3837208 -16.3571167 89.98202515 C-16.36244038 88.82189659 -16.36776405 87.66176804 -16.37324905 86.46648407 C-16.39999177 80.32583781 -16.41936297 74.18521196 -16.43377686 68.04452515 C-16.45042582 61.69781677 -16.49520318 55.35162755 -16.5461483 49.00511551 C-16.57978544 44.12893062 -16.59135049 39.25286945 -16.59700394 34.37657928 C-16.60372631 32.0369851 -16.61897376 29.69739934 -16.64289474 27.35791779 C-16.67447145 24.08277455 -16.67459369 20.80903811 -16.66717529 17.53378296 C-16.68358063 16.56731842 -16.69998596 15.60085388 -16.71688843 14.60510254 C-16.67563195 10.15504676 -16.52927117 7.10958451 -13.67221069 3.56765747 C-9.31168679 -0.49844971 -5.71179462 0.00315701 0 0 Z M7.9163208 24.15390015 C7.9163208 47.91390015 7.9163208 71.67390015 7.9163208 96.15390015 C73.9163208 96.15390015 139.9163208 96.15390015 207.9163208 96.15390015 C207.9163208 72.39390015 207.9163208 48.63390015 207.9163208 24.15390015 C141.9163208 24.15390015 75.9163208 24.15390015 7.9163208 24.15390015 Z " fill="#000000" transform="translate(148.08367919921875,67.84609985351563)"/>
<path d="M0 0 C3.93728735 0.81681164 5.69649866 2.57759951 8.41015625 5.5 C10.29833298 9.27635347 9.9082905 13.38721058 9.41015625 17.5 C8.10664835 21.38364084 6.28624829 24.92005317 4.37890625 28.5390625 C3.86839722 29.54593109 3.35788818 30.55279968 2.83190918 31.59017944 C1.20998737 34.77840777 -0.4392865 37.95151831 -2.08984375 41.125 C-3.19975955 43.29463114 -4.30785211 45.46519602 -5.4140625 47.63671875 C-8.11832323 52.93546421 -10.84513429 58.22210366 -13.58984375 63.5 C-12.70780777 63.50213753 -12.70780777 63.50213753 -11.80795288 63.50431824 C-5.67537069 63.5240387 0.4562193 63.57836249 6.58837891 63.65258789 C8.87541581 63.67575309 11.16255917 63.69016011 13.44970703 63.69555664 C16.74188465 63.70485658 20.03239124 63.74587274 23.32421875 63.79296875 C24.34319244 63.7890361 25.36216614 63.78510345 26.41201782 63.78105164 C31.0137245 63.87515651 34.37110525 63.9537187 38.04052734 66.91918945 C41.57183889 70.76521195 41.94164738 73.29418915 41.87506104 78.4024353 C40.88536959 84.99654527 37.408726 90.86083991 34.40234375 96.73828125 C33.67550483 98.19107513 32.95003354 99.64455397 32.2258606 101.09867859 C30.70998965 104.13162034 29.18061568 107.15721503 27.640625 110.17797852 C25.67385995 114.03764668 23.73772092 117.91171522 21.8109417 121.79147053 C20.31847715 124.79007656 18.81216443 127.78155155 17.30142593 130.77098656 C16.58246174 132.19676019 15.8672571 133.62443644 15.15600204 135.05407143 C14.15781416 137.05412546 13.14182219 139.04409745 12.12060547 141.0324707 C11.54768768 142.16368851 10.9747699 143.29490631 10.38449097 144.46040344 C7.73655384 148.53704785 4.71074677 151.90381038 -0.15234375 153.1640625 C-4.54190048 153.09371704 -7.65219962 152.95885163 -11.15234375 150.125 C-14.83871503 146.1550617 -14.99762242 143.61335764 -14.93383789 138.34014893 C-14.31184137 133.20470465 -11.94530963 128.98951542 -9.55859375 124.4609375 C-9.04808472 123.45406891 -8.53757568 122.44720032 -8.01159668 121.40982056 C-6.38967487 118.22159223 -4.740401 115.04848169 -3.08984375 111.875 C-1.97992795 109.70536886 -0.87183539 107.53480398 0.234375 105.36328125 C2.93863573 100.06453579 5.66544679 94.77789634 8.41015625 89.5 C7.52812027 89.49786247 7.52812027 89.49786247 6.62826538 89.49568176 C0.49568319 89.4759613 -5.6359068 89.42163751 -11.76806641 89.34741211 C-14.05510331 89.32424691 -16.34224667 89.30983989 -18.62939453 89.30444336 C-21.92157215 89.29514342 -25.21207874 89.25412726 -28.50390625 89.20703125 C-29.52287994 89.2109639 -30.54185364 89.21489655 -31.59170532 89.21894836 C-36.193412 89.12484349 -39.55079275 89.0462813 -43.22021484 86.08081055 C-46.75152639 82.23478805 -47.12133488 79.70581085 -47.05474854 74.5975647 C-46.06505709 68.00345473 -42.5884135 62.13916009 -39.58203125 56.26171875 C-38.85519233 54.80892487 -38.12972104 53.35544603 -37.4055481 51.90132141 C-35.88967715 48.86837966 -34.36030318 45.84278497 -32.8203125 42.82202148 C-30.85354745 38.96235332 -28.91740842 35.08828478 -26.9906292 31.20852947 C-25.49816465 28.20992344 -23.99185193 25.21844845 -22.48111343 22.22901344 C-21.76214924 20.80323981 -21.0469446 19.37556356 -20.33568954 17.94592857 C-19.33750166 15.94587454 -18.32150969 13.95590255 -17.30029297 11.9675293 C-16.72737518 10.83631149 -16.1544574 9.70509369 -15.56417847 8.53959656 C-11.54501454 2.3518733 -7.43097058 -0.35865921 0 0 Z " fill="#000000" transform="translate(258.58984375,243.5)"/>
<path d="M0 0 C3.12578143 1.6720747 5.39281175 3.7856235 7 7 C7.51512617 11.09157355 7.94367269 15.23589546 5.953125 18.95703125 C3.55501226 21.85592636 1.60351712 23.79811835 -2.171875 24.2734375 C-9.98876369 24.58137554 -9.98876369 24.58137554 -13.5625 21.625 C-17.3057723 17.59378368 -17.39037018 14.90519941 -17.359375 9.55078125 C-16.78039966 5.44131496 -15.00085071 3.78650423 -12 1 C-8.27533151 -0.86233425 -4.05504687 -0.57130829 0 0 Z " fill="#000000" transform="translate(149,260)"/>
</svg>
