<svg width="32" height="23" viewBox="0 0 32 23" fill="none" xmlns="http://www.w3.org/2000/svg">
<path d="M1.00007 20.1956C2.49511 21.2865 6.12593 22.8137 8.68885 20.1956C11.2518 17.5775 13.772 19.2319 15.0001 20.1956C16.8422 21.6412 19.1969 22.8137 22.785 20.1956C26.3731 17.5775 29.4059 19.1047 30.4738 20.1956" stroke="#155DFC" stroke-width="2" stroke-linecap="round"/>
<line x1="1.73693" y1="11.375" x2="29.7369" y2="11.375" stroke="#155DFC" stroke-width="2" stroke-linecap="round"/>
<path d="M16.0716 1.7334C18.1616 4.68908 19.6641 6.8715 20.6722 8.66504C21.7997 10.6712 22.2492 12.0843 22.2493 13.4346C22.2493 15.8822 19.6963 18.2139 16.0716 18.2139C12.447 18.2137 9.89481 15.8821 9.89481 13.4346C9.89492 12.0843 10.3434 10.6712 11.471 8.66504C12.4791 6.87151 13.9815 4.68908 16.0716 1.7334Z" stroke="#155DFC" stroke-width="2"/>
</svg>
