<svg width="14" height="30" viewBox="0 0 14 30" fill="none" xmlns="http://www.w3.org/2000/svg">
<path d="M7 0C9.20914 0 11 1.79086 11 4V17.2559C12.8132 18.5208 14 20.6215 14 23C14 26.866 10.866 30 7 30C3.13401 30 0 26.866 0 23C0 20.6215 1.18683 18.5208 3 17.2559V4C3 1.79086 4.79086 0 7 0ZM7 1.5C5.61929 1.5 4.5 2.61929 4.5 4V18.1006C2.71936 19.011 1.5 20.8628 1.5 23C1.5 26.0376 3.96243 28.5 7 28.5C10.0376 28.5 12.5 26.0376 12.5 23C12.5 20.8628 11.2806 19.011 9.5 18.1006V4C9.5 2.61929 8.38071 1.5 7 1.5ZM7 7C7.55228 7 8 7.44772 8 8V19.6455C9.44566 20.0758 10.5 21.4145 10.5 23C10.5 24.933 8.933 26.5 7 26.5C5.067 26.5 3.5 24.933 3.5 23C3.5 21.4145 4.55434 20.0758 6 19.6455V8C6 7.44772 6.44772 7 7 7Z" fill="#F54900"/>
</svg>
