<svg width="30" height="30" viewBox="0 0 30 30" fill="none" xmlns="http://www.w3.org/2000/svg">
<path d="M23.1816 10.7861C27.9539 17.8641 29.9996 21.0296 30 24.2207L29.9912 24.5186C29.8086 27.5717 26.8295 29.9999 23.1816 30L22.8311 29.9922C19.2285 29.8375 16.3633 27.3124 16.3633 24.2207C16.3637 21.0296 18.4094 17.8641 23.1816 10.7861ZM23.1807 14.376C21.654 16.6697 20.5346 18.4284 19.7471 19.9033C18.713 21.84 18.3635 23.0913 18.3633 24.2207C18.3633 26.01 20.1978 27.9998 23.1816 28C26.1655 27.9999 28 26.01 28 24.2207C27.9998 23.0913 27.6503 21.84 26.6162 19.9033C25.8286 18.4283 24.7076 16.67 23.1807 14.376ZM6.81836 6.74121C11.5906 13.8192 13.6364 16.9847 13.6367 20.1758L13.6279 20.4736C13.4453 23.5268 10.4662 25.955 6.81836 25.9551L6.46777 25.9473C2.86504 25.7927 0 23.2675 0 20.1758C0.000353902 16.9847 2.04604 13.8193 6.81836 6.74121ZM6.81738 10.3311C5.29072 12.6247 4.17136 14.3835 3.38379 15.8584C2.34967 17.7951 2.00017 19.0464 2 20.1758C2 21.9652 3.83436 23.9551 6.81836 23.9551C9.80225 23.955 11.6367 21.9651 11.6367 20.1758C11.6365 19.0464 11.287 17.7951 10.2529 15.8584C9.46527 14.3833 8.34435 12.6252 6.81738 10.3311ZM16.3633 0C19.704 4.96721 21.1366 7.18829 21.1367 9.42773L21.1299 9.63672C21.0021 11.7793 18.9168 13.4834 16.3633 13.4834L16.1182 13.4775C13.5963 13.369 11.5908 11.5973 11.5908 9.42773C11.591 7.18832 13.0226 4.9671 16.3633 0ZM16.3633 3.6123C15.5532 4.84913 14.939 5.8324 14.4893 6.67676C13.7872 7.99484 13.5909 8.77294 13.5908 9.42773C13.5908 10.2695 14.5142 11.4832 16.3633 11.4834C18.2126 11.4834 19.1367 10.2695 19.1367 9.42773C19.1367 8.77294 18.9393 7.99486 18.2373 6.67676C17.7875 5.83239 17.1734 4.84913 16.3633 3.6123Z" fill="#155DFC"/>
</svg>
