<svg width="40" height="40" viewBox="0 0 40 40" fill="none" xmlns="http://www.w3.org/2000/svg">
<path fill-rule="evenodd" clip-rule="evenodd" d="M21.1055 21.5811C21.9076 21.3647 22.732 21.8349 22.9473 22.6318L23.6426 25.207C24.6035 24.0072 25.8587 23.0615 27.2979 22.4697C29.1561 21.7057 31.2155 21.5727 33.1562 22.0889C35.0972 22.6052 36.8127 23.7433 38.0361 25.3262C39.2594 26.909 39.9238 28.8493 39.9238 30.8467C39.9238 32.8441 39.2596 34.7866 38.0342 36.3721C36.8087 37.9575 35.0911 39.0975 33.1484 39.6143C31.2059 40.131 29.1464 39.9958 27.29 39.2324C25.434 38.4691 23.883 37.1186 22.8779 35.3906C22.4631 34.6767 22.7089 33.7611 23.4277 33.3457C24.147 32.9304 25.067 33.1728 25.4824 33.8867C26.1571 35.0467 27.1999 35.9538 28.4473 36.4668C29.6945 36.9796 31.0767 37.069 32.3789 36.7227C33.6811 36.3762 34.8317 35.614 35.6514 34.5537C36.4708 33.4934 36.9149 32.1937 36.915 30.8564C36.915 29.5188 36.471 28.2163 35.6494 27.1533C34.8278 26.0904 33.675 25.3264 32.3711 24.9795C31.0671 24.6326 29.6847 24.7224 28.4395 25.2344C27.727 25.5274 27.0817 25.9495 26.5342 26.4736L28.6631 25.9082C29.4662 25.6946 30.2887 26.1688 30.501 26.9668C30.7128 27.7646 30.2345 28.5842 29.4316 28.7979L23.4746 30.3828C22.6738 30.5956 21.8524 30.125 21.6377 29.3301L20.042 23.416C19.8271 22.6189 20.3033 21.7976 21.1055 21.5811ZM30.4238 0C31.2521 0.000176258 31.9238 0.671682 31.9238 1.5V3.25H36.9727C37.801 3.25006 38.4726 3.92162 38.4727 4.75V20.0781C38.4726 20.9065 37.801 21.5781 36.9727 21.5781C36.1443 21.5781 35.4727 20.9065 35.4727 20.0781V13.835H3V35.2148H20.1895C21.0178 35.2149 21.6894 35.8865 21.6895 36.7148C21.6894 37.5432 21.0178 38.2148 20.1895 38.2148H1.5C0.671633 38.2148 9.79193e-05 37.5432 0 36.7148V4.75C7.72998e-06 3.92158 0.671578 3.25 1.5 3.25H6.00293V1.5C6.00293 0.671573 6.6745 0 7.50293 0C8.3312 0.00018888 9.00293 0.671689 9.00293 1.5V3.25H13.6436V1.5C13.6436 0.671573 14.3151 0 15.1436 0C15.9719 0.000103083 16.6436 0.671636 16.6436 1.5V3.25H21.2832V1.5C21.2832 0.671573 21.9548 0 22.7832 0C23.6115 0.000132971 24.2832 0.671655 24.2832 1.5V3.25H28.9238V1.5C28.9238 0.671573 29.5954 0 30.4238 0ZM3 10.835H35.4727V6.25H31.9238V6.91797C31.9236 7.74612 31.252 8.41779 30.4238 8.41797C29.5955 8.41797 28.924 7.74623 28.9238 6.91797V6.25H24.2832V6.91797C24.283 7.74614 23.6114 8.41784 22.7832 8.41797C21.9549 8.41797 21.2834 7.74623 21.2832 6.91797V6.25H16.6436V6.91797C16.6434 7.74616 15.9718 8.41787 15.1436 8.41797C14.3153 8.41797 13.6438 7.74623 13.6436 6.91797V6.25H9.00293V6.91797C9.00273 7.74611 8.33107 8.41778 7.50293 8.41797C6.67463 8.41797 6.00313 7.74623 6.00293 6.91797V6.25H3V10.835Z" fill="#00A63E"/>
</svg>
