<svg width="40" height="40" viewBox="0 0 40 40" fill="none" xmlns="http://www.w3.org/2000/svg">
<path fill-rule="evenodd" clip-rule="evenodd" d="M32.0713 0C32.8996 0 33.5712 0.671677 33.5713 1.5V3.39746H38.2988C39.1272 3.39755 39.7988 4.06909 39.7988 4.89746V12.8037C39.7989 12.8102 39.7998 12.8168 39.7998 12.8232C39.7998 12.8294 39.7989 12.8356 39.7988 12.8418V38.2998C39.7986 39.1279 39.127 39.7997 38.2988 39.7998H1.5C0.671742 39.7998 0.000274181 39.128 0 38.2998V4.89746C0 4.06903 0.671573 3.39746 1.5 3.39746H6.22754V1.5C6.22766 0.671677 6.89919 0 7.72754 0C8.55587 2.26498e-05 9.22742 0.671691 9.22754 1.5V3.39746H14.1533V1.5C14.1534 0.671677 14.825 0 15.6533 0C16.4816 4.53591e-05 17.1532 0.671705 17.1533 1.5V3.39746H22.6455V1.5C22.6456 0.671677 23.3172 0 24.1455 0C24.9738 6.07967e-05 25.6454 0.671714 25.6455 1.5V3.39746H30.5713V1.5C30.5714 0.671691 31.243 2.26498e-05 32.0713 0ZM3 36.7998H36.7988V14.3232H3V36.7998ZM24.7578 19.1484C25.3291 18.5486 26.278 18.5255 26.8779 19.0967C27.4778 19.668 27.5009 20.6169 26.9297 21.2168L22.2529 26.127L26.9297 31.0371C27.5009 31.637 27.4778 32.5869 26.8779 33.1582C26.278 33.7292 25.3281 33.7062 24.7568 33.1064L20.1816 28.3018L15.6074 33.1064C15.0361 33.7062 14.0862 33.7294 13.4863 33.1582C12.8866 32.5869 12.8634 31.637 13.4346 31.0371L18.1104 26.127L13.4346 21.2168C12.8637 20.6169 12.8867 19.6679 13.4863 19.0967C14.0861 18.5255 15.0351 18.5489 15.6064 19.1484L20.1816 23.9521L24.7578 19.1484ZM3 11.3232H36.7988V6.39746H33.5713V7.16113C33.5713 7.98956 32.8997 8.66113 32.0713 8.66113C31.2429 8.66111 30.5713 7.98955 30.5713 7.16113V6.39746H25.6455V7.16113C25.6455 7.98952 24.9739 8.66107 24.1455 8.66113C23.3171 8.66113 22.6455 7.98956 22.6455 7.16113V6.39746H17.1533V7.16113C17.1533 7.98953 16.4817 8.66109 15.6533 8.66113C14.8249 8.66113 14.1533 7.98956 14.1533 7.16113V6.39746H9.22754V7.16113C9.22754 7.98955 8.55595 8.66111 7.72754 8.66113C6.89911 8.66113 6.22754 7.98956 6.22754 7.16113V6.39746H3V11.3232Z" fill="#6D6D6D"/>
</svg>
