<svg width="22" height="23" viewBox="0 0 22 23" fill="none" xmlns="http://www.w3.org/2000/svg">
<path d="M4.71275 5.38121C3.49777 6.59619 2.67035 8.14417 2.33514 9.82939C1.99993 11.5146 2.17197 13.2614 2.82952 14.8489C3.48706 16.4363 4.60057 17.7931 6.02924 18.7477C7.4579 19.7023 9.13756 20.2118 10.8558 20.2118C12.574 20.2118 14.2537 19.7023 15.6824 18.7477C17.111 17.7931 18.2245 16.4363 18.8821 14.8489C19.5396 13.2614 19.7117 11.5146 19.3765 9.82939C19.0412 8.14417 18.2138 6.59619 16.9989 5.3812" stroke="#FF9686" stroke-width="3" stroke-linecap="round"/>
<path d="M10.856 9.51931L10.856 1.5" stroke="#FF9686" stroke-width="3" stroke-linecap="round"/>
<path d="M19.5434 20.8801L1.5 2.83667" stroke="#FF9686" stroke-width="3" stroke-linecap="round"/>
</svg>
