<svg width="49" height="53" viewBox="0 0 49 53" fill="none" xmlns="http://www.w3.org/2000/svg">
<path d="M9.46549 12.714C6.48007 15.6994 4.44698 19.5031 3.62331 23.644C2.79964 27.7849 3.22237 32.077 4.83807 35.9776C6.45376 39.8783 9.18984 43.2122 12.7003 45.5578C16.2108 47.9034 20.338 49.1554 24.56 49.1554C28.782 49.1554 32.9092 47.9034 36.4197 45.5578C39.9302 43.2122 42.6662 39.8783 44.2819 35.9776C45.8976 32.077 46.3204 27.7849 45.4967 23.644C44.673 19.5031 42.6399 15.6994 39.6545 12.714" stroke="#6D6D6D" stroke-width="6" stroke-linecap="round"/>
<path d="M25.1372 22.616L25.1372 3" stroke="#6D6D6D" stroke-width="6" stroke-linecap="round"/>
<path d="M45.9941 49.2726L3 6.2688" stroke="#6D6D6D" stroke-width="6" stroke-linecap="round"/>
</svg>
